<svg xmlns="http://www.w3.org/2000/svg" aria-hidden="true" style="position:absolute;width:0;height:0;overflow:hidden">
  <defs>
    <symbol id="icon-mail" viewBox="0 0 43 32">
      <path d="M38.667 0H4C1.794 0 0 1.794 0 4v24c0 2.206 1.794 4 4 4h34.667c2.206 0 4-1.794 4-4V4c0-2.206-1.794-4-4-4zm0 2.667c.181 0 .353.038.511.103L21.334 18.236 3.49 2.77a1.32 1.32 0 0 1 .511-.103h34.667zm0 26.666H4A1.334 1.334 0 0 1 2.667 28V5.587L20.46 21.008a1.335 1.335 0 0 0 1.748 0L40.001 5.587V28c0 .736-.598 1.333-1.333 1.333z"/>
    </symbol>
    <symbol id="icon-smartphone" viewBox="0 0 20 32">
      <path d="M17 0H3C1.346 0 0 1.346 0 3v26c0 1.654 1.346 3 3 3h14c1.654 0 3-1.346 3-3V3c0-1.654-1.346-3-3-3zM3 2h14a1 1 0 0 1 1 1v21H2V3a1 1 0 0 1 1-1zm14 28H3a1 1 0 0 1-1-1v-3h16v3a1 1 0 0 1-1 1z"/>
      <path d="M4.707 27.478c.391.365.391.956 0 1.321s-1.024.365-1.414 0c-.391-.365-.391-.956 0-1.321s1.024-.365 1.414 0z"/>
    </symbol>
    <symbol id="icon-instagram" viewBox="0 0 32 32">
      <path d="M31.969 9.408c-.075-1.7-.35-2.869-.744-3.882a7.806 7.806 0 0 0-1.851-2.838A7.867 7.867 0 0 0 26.542.844C25.523.45 24.36.175 22.66.1 20.947.019 20.403 0 16.059 0s-4.888.019-6.595.094c-1.7.075-2.869.35-3.882.744a7.803 7.803 0 0 0-2.838 1.85A7.867 7.867 0 0 0 .9 5.52C.506 6.539.231 7.702.156 9.402c-.081 1.713-.1 2.257-.1 6.601s.019 4.888.094 6.595c.075 1.7.35 2.869.744 3.882a7.895 7.895 0 0 0 1.85 2.838 7.867 7.867 0 0 0 2.832 1.844c1.019.394 2.182.669 3.882.744 1.706.075 2.25.094 6.595.094s4.888-.019 6.595-.094c1.7-.075 2.869-.35 3.882-.744a8.184 8.184 0 0 0 4.682-4.682c.394-1.019.669-2.182.744-3.882.075-1.707.094-2.251.094-6.595s-.006-4.888-.081-6.595zm-2.882 13.065c-.069 1.563-.331 2.407-.55 2.969a5.31 5.31 0 0 1-3.038 3.038c-.563.219-1.413.481-2.969.55-1.688.075-2.194.094-6.464.094s-4.782-.019-6.464-.094c-1.563-.069-2.407-.331-2.969-.55a4.926 4.926 0 0 1-1.838-1.194 4.974 4.974 0 0 1-1.194-1.838c-.219-.563-.481-1.413-.55-2.969-.075-1.688-.094-2.194-.094-6.464s.019-4.782.094-6.464c.069-1.563.331-2.407.55-2.969a4.868 4.868 0 0 1 1.2-1.838A4.974 4.974 0 0 1 6.639 3.55c.563-.219 1.413-.481 2.969-.55 1.688-.075 2.194-.094 6.464-.094 4.276 0 4.782.019 6.464.094 1.563.069 2.407.331 2.969.55a4.914 4.914 0 0 1 1.838 1.194 4.974 4.974 0 0 1 1.194 1.838c.219.563.481 1.413.55 2.969.075 1.688.094 2.194.094 6.464s-.019 4.77-.094 6.458z"/>
      <path d="M16.059 7.783c-4.538 0-8.22 3.682-8.22 8.22s3.682 8.22 8.22 8.22c4.539 0 8.22-3.682 8.22-8.22s-3.682-8.22-8.22-8.22zm0 13.552a5.333 5.333 0 0 1 0-10.664 5.333 5.333 0 0 1 0 10.664zM26.524 7.458a1.919 1.919 0 1 1-3.838 0 1.919 1.919 0 0 1 3.838 0z"/>
    </symbol>

    <symbol id="icon-telegram" viewBox="0 0 32 32">
<path d="M16 0c-8.838 0-16 7.162-16 16s7.162 16 16 16 16-7.163 16-16-7.163-16-16-16zM23.863 10.969l-2.625 12.369c-0.181 0.881-0.712 1.087-1.45 0.681l-4-2.956-1.919 1.869c-0.225 0.219-0.4 0.4-0.8 0.4-0.519 0-0.431-0.194-0.606-0.688l-1.363-4.475-3.956-1.231c-0.856-0.262-0.862-0.85 0.194-1.269l15.412-5.95c0.7-0.319 1.381 0.169 1.113 1.25z"></path>
</symbol>

<symbol id="icon-viber" viewBox="0 0 32 32">
<path d="M27.587 3.116c-0.793-0.727-4.007-3.063-11.163-3.093 0 0-8.444-0.505-12.557 3.269-2.288 2.288-3.089 5.639-3.181 9.795s-0.195 11.945 7.313 14.063h0.007l-0.007 3.225s-0.049 1.307 0.809 1.569c1.037 0.325 1.651-0.669 2.644-1.739 0.544-0.588 1.293-1.449 1.863-2.107 0.8 0.079 1.728 0.123 2.668 0.123 2.436 0 4.803-0.3 7.064-0.865l-0.2 0.043c1.037-0.337 6.907-1.088 7.856-8.876 0.992-8.040-0.472-13.112-3.116-15.407zM28.456 17.936c-0.809 6.5-5.564 6.913-6.439 7.193-1.909 0.485-4.101 0.763-6.359 0.763-0.648 0-1.291-0.023-1.927-0.068l0.085 0.005s-3.251 3.919-4.263 4.937c-0.331 0.331-0.695 0.304-0.688-0.356 0-0.431 0.025-5.357 0.025-5.357-6.356-1.763-5.988-8.397-5.913-11.863s0.725-6.313 2.663-8.225c3.483-3.156 10.652-2.688 10.652-2.688 6.057 0.025 8.957 1.851 9.632 2.463 2.232 1.913 3.369 6.489 2.531 13.195zM19.775 12.885v0.019c0 0.224-0.181 0.405-0.405 0.405-0.217 0-0.395-0.171-0.404-0.385v-0.001c0.005-0.056 0.009-0.123 0.009-0.188 0-1.068-0.865-1.933-1.933-1.933-0.040 0-0.080 0.001-0.119 0.004h0.005c-0.215-0.012-0.384-0.188-0.384-0.404 0-0.224 0.181-0.405 0.405-0.405h0.021c0.027-0.001 0.060-0.001 0.092-0.001 1.501 0 2.717 1.216 2.717 2.717 0 0.061-0.003 0.123-0.007 0.183v-0.008zM21.043 13.593c0.063-2.651-1.593-4.725-4.737-4.957-0.212-0.015-0.377-0.191-0.377-0.404 0-0.224 0.181-0.405 0.405-0.405 0.009 0 0.020 0 0.029 0.001h0.021c3.023 0 5.475 2.451 5.475 5.475 0 0.108-0.003 0.216-0.009 0.323l0.001-0.015c-0.005 0.22-0.184 0.395-0.404 0.395-0.224 0-0.405-0.181-0.405-0.405 0-0.004 0-0.007 0-0.011zM23.976 14.432v0.003c0 0.224-0.181 0.405-0.405 0.405s-0.403-0.18-0.404-0.401c-0.032-5.096-3.431-7.871-7.549-7.9-0.224 0-0.404-0.181-0.404-0.404s0.181-0.404 0.404-0.404c4.612 0.032 8.319 3.215 8.356 8.7zM23.276 20.563v0.012c-0.675 1.188-1.937 2.5-3.237 2.081l-0.012-0.019c-2.443-0.912-4.555-2.104-6.441-3.572l0.055 0.040c-0.991-0.789-1.861-1.66-2.625-2.617l-0.025-0.033c-0.679-0.851-1.315-1.803-1.869-2.808l-0.053-0.105c-0.609-0.995-1.16-2.144-1.591-3.351l-0.040-0.131c-0.419-1.3 0.887-2.563 2.081-3.237h0.012c0.173-0.111 0.384-0.177 0.611-0.177 0.356 0 0.673 0.164 0.883 0.419l0.001 0.003s0.775 0.924 1.107 1.381c0.312 0.425 0.732 1.107 0.949 1.487 0.125 0.196 0.199 0.436 0.199 0.693 0 0.384-0.165 0.729-0.429 0.968l-0.001 0.001-0.749 0.6c-0.207 0.2-0.335 0.48-0.335 0.789 0 0.031 0.001 0.060 0.004 0.089v-0.004c0.772 2.537 2.731 4.496 5.213 5.255l0.056 0.015c0.025 0.003 0.056 0.004 0.085 0.004 0.309 0 0.589-0.128 0.789-0.333l0.6-0.749c0.24-0.265 0.585-0.431 0.969-0.431 0.257 0 0.496 0.075 0.699 0.203l-0.005-0.003c1.084 0.617 2.021 1.296 2.876 2.065l-0.015-0.013c0.256 0.205 0.417 0.519 0.417 0.869 0 0.225-0.067 0.435-0.183 0.611l0.003-0.004z"></path>
</symbol>

   
    <symbol id="icon-person-modal" viewBox="0 0 32 32">
      <path d="M16 16c2.947 0 5.333-2.387 5.333-5.333S18.946 5.334 16 5.334c-2.947 0-5.333 2.387-5.333 5.333S13.054 16 16 16zm0 2.667c-3.56 0-10.667 1.787-10.667 5.333v1.333c0 .733.6 1.333 1.333 1.333h18.667c.733 0 1.333-.6 1.333-1.333V24c0-3.547-7.107-5.333-10.667-5.333z"/>
    </symbol>
    <symbol id="icon-phone-modal" viewBox="0 0 32 32">
      <path d="m24.882 19.773-3.268-.373a2.561 2.561 0 0 0-2.11.733L17.137 22.5a19.357 19.357 0 0 1-8.478-8.478l2.38-2.38a2.561 2.561 0 0 0 .733-2.11l-.373-3.242a2.575 2.575 0 0 0-2.56-2.277H6.613c-1.454 0-2.663 1.209-2.573 2.663.682 10.987 9.469 19.761 20.443 20.443 1.454.09 2.663-1.119 2.663-2.573V22.32a2.549 2.549 0 0 0-2.264-2.547z"/>
    </symbol>
    <symbol id="icon-email-modal" viewBox="0 0 32 32">
      <path d="M26.667 5.333H5.334A2.663 2.663 0 0 0 2.681 8l-.013 16c0 1.467 1.2 2.667 2.667 2.667h21.333c1.467 0 2.667-1.2 2.667-2.667V8c0-1.467-1.2-2.667-2.667-2.667zM26.133 11l-9.427 5.893a1.346 1.346 0 0 1-1.413 0L5.866 11a1.132 1.132 0 1 1 1.2-1.92l8.933 5.587 8.933-5.587a1.132 1.132 0 1 1 1.2 1.92z"/>
    </symbol>
    
 <symbol id="icon-Vector-1" viewBox="0 0 42 32">
      <path stroke-width=".64" d="m6.263 15.205-.22-.21-3.307 3.132 11.651 11.114L38.864 5.89l-3.285-3.134-21.192 20.197-8.124-7.75z"/>
    </symbol>

<symbol id="icon-icon-send" viewBox="0 0 32 32">
      <path d="M32 0 0 18l10.227 3.788L26 7 14.002 23.186l.01.004-.012-.004V32l5.735-6.691L27 28l5-28z"/>
    </symbol>

<symbol id="icon-menu" viewBox="0 0 32 32">
<path d="M6.4 11.733v-2.133h19.2v2.133h-19.2zM6.4 17.067h19.2v-2.133h-19.2v2.133zM6.4 22.4h19.2v-2.133h-19.2v2.133z"></path>
</symbol>

<symbol id="icon-close-molile-menu" viewBox="0 0 32 32">
<path d="M23.733 10.304l-1.504-1.504-5.963 5.963-5.963-5.963-1.504 1.504 5.963 5.963-5.963 5.963 1.504 1.504 5.963-5.963 5.963 5.963 1.504-1.504-5.963-5.963 5.963-5.963z"></path>
</symbol>

</defs>
</svg>

