<svg width="18" height="15" viewBox="0 0 18 15" fill="none" xmlns="http://www.w3.org/2000/svg">
<path d="M9.00001 4.02634C11.2737 4.02634 13.1684 5.60528 13.1684 7.50002C13.1684 7.9737 13.5474 8.28949 14.1158 8.28949C14.6842 8.28949 15.0632 7.9737 15.0632 7.50002C15.0632 4.73686 12.3158 2.44739 9.00001 2.44739C8.43159 2.44739 8.05264 2.76318 8.05264 3.23686C8.05264 3.71055 8.43159 4.02634 9.00001 4.02634Z" fill="white" fill-opacity="0.66"/>
<path d="M9.00001 6.47368C9.66317 6.47368 10.2316 6.94736 10.2316 7.49999C10.2316 7.97368 10.6105 8.28947 11.179 8.28947C11.7474 8.28947 12.1263 7.97368 12.1263 7.49999C12.1263 6.07894 10.7053 4.89473 9.00001 4.89473C8.43159 4.89473 8.05264 5.21052 8.05264 5.6842C8.05264 6.15789 8.43159 6.47368 9.00001 6.47368Z" fill="white" fill-opacity="0.66"/>
<path d="M9.00001 0C8.43159 0 8.05264 0.315789 8.05264 0.789474C8.05264 1.26316 8.43159 1.57895 9.00001 1.57895C12.8842 1.57895 16.1053 4.26316 16.1053 7.5C16.1053 7.97368 16.4842 8.28947 17.0526 8.28947C17.6211 8.28947 18 7.97368 18 7.5C18 3.39474 13.9263 0 9.00001 0Z" fill="white" fill-opacity="0.66"/>
<path d="M15.0632 10.3421L14.8737 10.2632C14.8737 10.2632 12.7895 9.39474 12.4105 9.31579C11.6526 9.07895 10.8947 9.23684 10.4211 9.78948L10.3263 9.94737C10.1368 10.1842 9.85263 10.5 9.66316 10.6579C9.18947 10.5 8.33684 10.1842 7.2 9.39474C6.44211 8.84211 5.87368 8.13158 5.58947 7.73685C5.68421 7.6579 5.68421 7.6579 5.77895 7.57895C5.87368 7.5 5.96842 7.42106 6.06316 7.34211C6.25263 7.18421 6.34737 7.02632 6.53684 6.78948C6.72632 6.39474 6.72632 6 6.53684 5.52632C6.4421 5.36842 6.06316 4.6579 5.77895 4.10527L5.4 3.47369C5.02105 2.68421 4.45263 2.52632 3.78947 2.52632C3.69474 2.36842 3.6 2.36842 3.41053 2.36842C2.65263 2.36842 1.98947 2.60527 1.51579 3C1.04211 3.39474 0 4.26316 0 6C0 7.42106 1.0421 8.76316 1.61053 9.47369L1.70526 9.55263C3.50526 11.7632 5.77895 13.3421 8.05263 14.1316C10.0421 14.8421 11.1789 15 11.9368 15C12.3158 15 12.6 15 12.7895 14.9211C14.0211 14.6842 15.4421 13.9737 15.8211 13.0263C16.0105 12.4737 16.2947 11.5263 15.9158 10.9737C15.7263 10.6579 15.3474 10.5 15.0632 10.3421Z" fill="white" fill-opacity="0.66"/>
</svg>
